<svg xmlns="http://www.w3.org/2000/svg" viewBox="0 0 1216 640" width="1216" height="640" role="img" aria-label="A grid of one hundred nodes: ninety-five dim and five glowing mint, representing the small share of AI pilots that reach measurable results."><defs><radialGradient id="g" cx="50%" cy="42%" r="70%"><stop offset="0%" stop-color="#0a1410"/><stop offset="100%" stop-color="#060608"/></radialGradient></defs><rect width="1216" height="640" fill="url(#g)"/><circle cx="130.0" cy="150.0" r="5" fill="#252e3a"/><circle cx="180.3" cy="150.0" r="5" fill="#252e3a"/><circle cx="230.6" cy="150.0" r="5" fill="#252e3a"/><circle cx="280.9" cy="150.0" r="5" fill="#252e3a"/><circle cx="331.3" cy="150.0" r="5" fill="#252e3a"/><circle cx="381.6" cy="150.0" r="5" fill="#252e3a"/><circle cx="431.9" cy="150.0" r="5" fill="#252e3a"/><circle cx="482.2" cy="150.0" r="5" fill="#252e3a"/><circle cx="532.5" cy="150.0" r="5" fill="#252e3a"/><circle cx="582.8" cy="150.0" r="5" fill="#252e3a"/><circle cx="633.2" cy="150.0" r="5" fill="#252e3a"/><circle cx="683.5" cy="150.0" r="5" fill="#252e3a"/><circle cx="733.8" cy="150.0" r="26" fill="#00e5a0" opacity="0.16"/><circle cx="733.8" cy="150.0" r="14" fill="#00e5a0" opacity="0.32"/><circle cx="733.8" cy="150.0" r="8" fill="#1ffdb3"/><circle cx="784.1" cy="150.0" r="5" fill="#252e3a"/><circle cx="834.4" cy="150.0" r="5" fill="#252e3a"/><circle cx="884.7" cy="150.0" r="5" fill="#252e3a"/><circle cx="935.1" cy="150.0" r="5" fill="#252e3a"/><circle cx="985.4" cy="150.0" r="5" fill="#252e3a"/><circle cx="1035.7" cy="150.0" r="5" fill="#252e3a"/><circle cx="1086.0" cy="150.0" r="5" fill="#252e3a"/><circle cx="130.0" cy="235.0" r="5" fill="#252e3a"/><circle cx="180.3" cy="235.0" r="5" fill="#252e3a"/><circle cx="230.6" cy="235.0" r="5" fill="#252e3a"/><circle cx="280.9" cy="235.0" r="26" fill="#00e5a0" opacity="0.16"/><circle cx="280.9" cy="235.0" r="14" fill="#00e5a0" opacity="0.32"/><circle cx="280.9" cy="235.0" r="8" fill="#1ffdb3"/><circle cx="331.3" cy="235.0" r="5" fill="#252e3a"/><circle cx="381.6" cy="235.0" r="5" fill="#252e3a"/><circle cx="431.9" cy="235.0" r="5" fill="#252e3a"/><circle cx="482.2" cy="235.0" r="5" fill="#252e3a"/><circle cx="532.5" cy="235.0" r="5" fill="#252e3a"/><circle cx="582.8" cy="235.0" r="5" fill="#252e3a"/><circle cx="633.2" cy="235.0" r="5" fill="#252e3a"/><circle cx="683.5" cy="235.0" r="5" fill="#252e3a"/><circle cx="733.8" cy="235.0" r="5" fill="#252e3a"/><circle cx="784.1" cy="235.0" r="5" fill="#252e3a"/><circle cx="834.4" cy="235.0" r="5" fill="#252e3a"/><circle cx="884.7" cy="235.0" r="5" fill="#252e3a"/><circle cx="935.1" cy="235.0" r="5" fill="#252e3a"/><circle cx="985.4" cy="235.0" r="5" fill="#252e3a"/><circle cx="1035.7" cy="235.0" r="5" fill="#252e3a"/><circle cx="1086.0" cy="235.0" r="5" fill="#252e3a"/><circle cx="130.0" cy="320.0" r="5" fill="#252e3a"/><circle cx="180.3" cy="320.0" r="5" fill="#252e3a"/><circle cx="230.6" cy="320.0" r="5" fill="#252e3a"/><circle cx="280.9" cy="320.0" r="5" fill="#252e3a"/><circle cx="331.3" cy="320.0" r="5" fill="#252e3a"/><circle cx="381.6" cy="320.0" r="5" fill="#252e3a"/><circle cx="431.9" cy="320.0" r="5" fill="#252e3a"/><circle cx="482.2" cy="320.0" r="5" fill="#252e3a"/><circle cx="532.5" cy="320.0" r="5" fill="#252e3a"/><circle cx="582.8" cy="320.0" r="5" fill="#252e3a"/><circle cx="633.2" cy="320.0" r="5" fill="#252e3a"/><circle cx="683.5" cy="320.0" r="5" fill="#252e3a"/><circle cx="733.8" cy="320.0" r="5" fill="#252e3a"/><circle cx="784.1" cy="320.0" r="5" fill="#252e3a"/><circle cx="834.4" cy="320.0" r="5" fill="#252e3a"/><circle cx="884.7" cy="320.0" r="5" fill="#252e3a"/><circle cx="935.1" cy="320.0" r="5" fill="#252e3a"/><circle cx="985.4" cy="320.0" r="26" fill="#00e5a0" opacity="0.16"/><circle cx="985.4" cy="320.0" r="14" fill="#00e5a0" opacity="0.32"/><circle cx="985.4" cy="320.0" r="8" fill="#1ffdb3"/><circle cx="1035.7" cy="320.0" r="5" fill="#252e3a"/><circle cx="1086.0" cy="320.0" r="5" fill="#252e3a"/><circle cx="130.0" cy="405.0" r="5" fill="#252e3a"/><circle cx="180.3" cy="405.0" r="5" fill="#252e3a"/><circle cx="230.6" cy="405.0" r="5" fill="#252e3a"/><circle cx="280.9" cy="405.0" r="5" fill="#252e3a"/><circle cx="331.3" cy="405.0" r="5" fill="#252e3a"/><circle cx="381.6" cy="405.0" r="5" fill="#252e3a"/><circle cx="431.9" cy="405.0" r="5" fill="#252e3a"/><circle cx="482.2" cy="405.0" r="5" fill="#252e3a"/><circle cx="532.5" cy="405.0" r="26" fill="#00e5a0" opacity="0.16"/><circle cx="532.5" cy="405.0" r="14" fill="#00e5a0" opacity="0.32"/><circle cx="532.5" cy="405.0" r="8" fill="#1ffdb3"/><circle cx="582.8" cy="405.0" r="5" fill="#252e3a"/><circle cx="633.2" cy="405.0" r="5" fill="#252e3a"/><circle cx="683.5" cy="405.0" r="5" fill="#252e3a"/><circle cx="733.8" cy="405.0" r="5" fill="#252e3a"/><circle cx="784.1" cy="405.0" r="5" fill="#252e3a"/><circle cx="834.4" cy="405.0" r="5" fill="#252e3a"/><circle cx="884.7" cy="405.0" r="5" fill="#252e3a"/><circle cx="935.1" cy="405.0" r="5" fill="#252e3a"/><circle cx="985.4" cy="405.0" r="5" fill="#252e3a"/><circle cx="1035.7" cy="405.0" r="5" fill="#252e3a"/><circle cx="1086.0" cy="405.0" r="5" fill="#252e3a"/><circle cx="130.0" cy="490.0" r="5" fill="#252e3a"/><circle cx="180.3" cy="490.0" r="5" fill="#252e3a"/><circle cx="230.6" cy="490.0" r="5" fill="#252e3a"/><circle cx="280.9" cy="490.0" r="5" fill="#252e3a"/><circle cx="331.3" cy="490.0" r="5" fill="#252e3a"/><circle cx="381.6" cy="490.0" r="5" fill="#252e3a"/><circle cx="431.9" cy="490.0" r="5" fill="#252e3a"/><circle cx="482.2" cy="490.0" r="5" fill="#252e3a"/><circle cx="532.5" cy="490.0" r="5" fill="#252e3a"/><circle cx="582.8" cy="490.0" r="5" fill="#252e3a"/><circle cx="633.2" cy="490.0" r="5" fill="#252e3a"/><circle cx="683.5" cy="490.0" r="5" fill="#252e3a"/><circle cx="733.8" cy="490.0" r="5" fill="#252e3a"/><circle cx="784.1" cy="490.0" r="5" fill="#252e3a"/><circle cx="834.4" cy="490.0" r="5" fill="#252e3a"/><circle cx="884.7" cy="490.0" r="26" fill="#00e5a0" opacity="0.16"/><circle cx="884.7" cy="490.0" r="14" fill="#00e5a0" opacity="0.32"/><circle cx="884.7" cy="490.0" r="8" fill="#1ffdb3"/><circle cx="935.1" cy="490.0" r="5" fill="#252e3a"/><circle cx="985.4" cy="490.0" r="5" fill="#252e3a"/><circle cx="1035.7" cy="490.0" r="5" fill="#252e3a"/><circle cx="1086.0" cy="490.0" r="5" fill="#252e3a"/></svg>